<svg width="22" height="22" viewBox="0 0 22 22" fill="none" xmlns="http://www.w3.org/2000/svg">
<path d="M1.66671 19.3127C2.86671 18.1349 4.26115 17.2071 5.85004 16.5293C7.43893 15.8516 9.1556 15.5127 11 15.5127C12.8445 15.5127 14.5612 15.8516 16.15 16.5293C17.7389 17.2071 19.1334 18.1349 20.3334 19.3127V2.48734C20.3334 2.282 20.2479 2.09389 20.077 1.923C19.9062 1.75211 19.718 1.66667 19.5127 1.66667H2.48737C2.28204 1.66667 2.09393 1.75211 1.92304 1.923C1.75215 2.09389 1.66671 2.282 1.66671 2.48734V19.3127ZM11 12.436C12.118 12.436 13.0642 12.0488 13.8384 11.2743C14.6128 10.4999 15 9.55378 15 8.436C15 7.318 14.6128 6.37178 13.8384 5.59734C13.0642 4.82311 12.118 4.436 11 4.436C9.88204 4.436 8.93593 4.82311 8.16171 5.59734C7.38726 6.37178 7.00004 7.318 7.00004 8.436C7.00004 9.55378 7.38726 10.4999 8.16171 11.2743C8.93593 12.0488 9.88204 12.436 11 12.436ZM2.48737 21.6667C1.8736 21.6667 1.36115 21.4611 0.950041 21.05C0.53893 20.6389 0.333374 20.1264 0.333374 19.5127V2.48734C0.333374 1.87356 0.53893 1.36111 0.950041 0.950003C1.36115 0.538891 1.8736 0.333336 2.48737 0.333336H19.5127C20.1265 0.333336 20.6389 0.538891 21.05 0.950003C21.4612 1.36111 21.6667 1.87356 21.6667 2.48734V19.5127C21.6667 20.1264 21.4612 20.6389 21.05 21.05C20.6389 21.4611 20.1265 21.6667 19.5127 21.6667H2.48737ZM2.50504 20.3333H19.495C18.2095 19.1249 16.8475 18.2416 15.409 17.6833C13.9706 17.1251 12.5009 16.846 11 16.846C9.53337 16.846 8.06971 17.1251 6.60904 17.6833C5.14837 18.2416 3.78037 19.1249 2.50504 20.3333ZM11 11.1027C10.2736 11.1027 9.64749 10.8398 9.12171 10.314C8.59615 9.78845 8.33337 9.16245 8.33337 8.436C8.33337 7.70934 8.59615 7.08322 9.12171 6.55767C9.64749 6.03211 10.2736 5.76934 11 5.76934C11.7265 5.76934 12.3526 6.03211 12.8784 6.55767C13.4039 7.08322 13.6667 7.70934 13.6667 8.436C13.6667 9.16245 13.4039 9.78845 12.8784 10.314C12.3526 10.8398 11.7265 11.1027 11 11.1027Z" fill="black"/>
</svg>
