<svg width="50" height="51" viewBox="0 0 50 51" fill="none" xmlns="http://www.w3.org/2000/svg">
<mask id="mask0_21_137" style="mask-type:alpha" maskUnits="userSpaceOnUse" x="0" y="0" width="50" height="51">
<rect x="0.115417" y="0.806885" width="49.8462" height="49.8462" fill="#D9D9D9"/>
</mask>
<g mask="url(#mask0_21_137)">
<path d="M7.38464 42.6646V15.6646H15.6923V7.35693H34.3846V23.9723H42.6923V42.6646H28.1539V34.3569H21.9231V42.6646H7.38464ZM9.46157 40.5877H15.6923V34.3569H9.46157V40.5877ZM9.46157 32.28H15.6923V26.0492H9.46157V32.28ZM9.46157 23.9723H15.6923V17.7415H9.46157V23.9723ZM17.7693 32.28H24V26.0492H17.7693V32.28ZM17.7693 23.9723H24V17.7415H17.7693V23.9723ZM17.7693 15.6646H24V9.43386H17.7693V15.6646ZM26.077 32.28H32.3077V26.0492H26.077V32.28ZM26.077 23.9723H32.3077V17.7415H26.077V23.9723ZM26.077 15.6646H32.3077V9.43386H26.077V15.6646ZM34.3846 40.5877H40.6154V34.3569H34.3846V40.5877ZM34.3846 32.28H40.6154V26.0492H34.3846V32.28Z" fill="#0DA79E"/>
</g>
</svg>
