<svg width="51" height="51" viewBox="0 0 51 51" fill="none" xmlns="http://www.w3.org/2000/svg">
<mask id="mask0_21_131" style="mask-type:alpha" maskUnits="userSpaceOnUse" x="0" y="0" width="51" height="51">
<rect x="0.384644" y="0.806885" width="49.8462" height="49.8462" fill="#D9D9D9"/>
</mask>
<g mask="url(#mask0_21_131)">
<path d="M10.7693 40.2685V24.6116H6.61542V22.5346H13.9246C13.0568 22.5346 12.314 22.2217 11.6961 21.5959C11.0782 20.9704 10.7693 20.2182 10.7693 19.3393V11.1915H21.3938V19.3393C21.3938 20.2182 21.0808 20.9704 20.455 21.5959C19.8291 22.2217 19.077 22.5346 18.1984 22.5346H35.6923V16.5837C35.6923 15.6758 35.3832 14.8962 34.765 14.2451C34.1464 13.594 33.3802 13.2685 32.4664 13.2685C31.5522 13.2685 30.7763 13.594 30.1386 14.2451C29.501 14.8962 29.1822 15.6758 29.1822 16.5837H27.0653C27.1183 15.0659 27.6574 13.7877 28.6827 12.7492C29.708 11.7108 30.9661 11.1915 32.457 11.1915C33.9482 11.1915 35.2063 11.7158 36.2313 12.7643C37.2566 13.8128 37.7693 15.0859 37.7693 16.5837V22.5346H44V24.6116H39.8462V40.2685H10.7693ZM12.8462 20.4577H19.3168V13.2685H12.8462V20.4577ZM12.8462 38.1915H24.2693V24.6116H12.8462V38.1915ZM26.3462 38.1915H37.7693V24.6116H26.3462V38.1915Z" fill="#0DA79E"/>
</g>
</svg>
