<svg width="32" height="32" viewBox="0 0 32 32" fill="none" xmlns="http://www.w3.org/2000/svg">
<mask id="mask0_111_211" style="mask-type:alpha" maskUnits="userSpaceOnUse" x="0" y="0" width="32" height="32">
<rect width="32" height="32" fill="#D9D9D9"/>
</mask>
<g mask="url(#mask0_111_211)">
<path d="M16 26.205L14.9897 25.2923C12.8137 23.3043 11.0137 21.6027 9.58967 20.1873C8.16589 18.7718 7.042 17.5234 6.218 16.4423C5.394 15.3612 4.81833 14.383 4.491 13.5077C4.16367 12.6326 4 11.7522 4 10.8667C4 9.17089 4.57611 7.747 5.72833 6.595C6.88033 5.44278 8.30422 4.86666 10 4.86666C11.1727 4.86666 12.2727 5.16666 13.3 5.76666C14.3273 6.36667 15.2273 7.23933 16 8.38466C16.7727 7.23933 17.6727 6.36667 18.7 5.76666C19.7273 5.16666 20.8273 4.86666 22 4.86666C23.6958 4.86666 25.1197 5.44278 26.2717 6.595C27.4239 7.747 28 9.17089 28 10.8667C28 11.7522 27.8363 12.6326 27.509 13.5077C27.1817 14.383 26.606 15.3612 25.782 16.4423C24.958 17.5234 23.8383 18.7718 22.423 20.1873C21.0077 21.6027 19.2034 23.3043 17.0103 25.2923L16 26.205ZM16 24.4C18.1333 22.4718 19.8889 20.8201 21.2667 19.445C22.6444 18.0697 23.7333 16.8764 24.5333 15.8653C25.3333 14.8542 25.8889 13.9586 26.2 13.1783C26.5111 12.3979 26.6667 11.6273 26.6667 10.8667C26.6667 9.53333 26.2222 8.42222 25.3333 7.53333C24.4444 6.64444 23.3333 6.2 22 6.2C20.9384 6.2 19.959 6.503 19.0617 7.109C18.1641 7.715 17.3607 8.62733 16.6513 9.846H15.3487C14.6222 8.61022 13.8146 7.69355 12.9257 7.096C12.0368 6.49867 11.0616 6.2 10 6.2C8.68378 6.2 7.57689 6.64444 6.67933 7.53333C5.782 8.42222 5.33333 9.53333 5.33333 10.8667C5.33333 11.6273 5.48889 12.3979 5.8 13.1783C6.11111 13.9586 6.66667 14.8542 7.46667 15.8653C8.26667 16.8764 9.35556 18.0653 10.7333 19.432C12.1111 20.7987 13.8667 22.4547 16 24.4Z" fill="#1C1B1F"/>
</g>
</svg>
