<svg width="299" height="37" viewBox="0 0 299 37" fill="none" xmlns="http://www.w3.org/2000/svg">
<path d="M18.55 19.55C17.55 19.4833 16.5333 19.4333 15.5 19.4C14.5 19.3667 13.5 19.35 12.5 19.35C12.5 20.35 12.5 21.6 12.5 23.1C12.5333 24.6 12.5667 26.15 12.6 27.75C12.6667 29.3167 12.7333 30.85 12.8 32.35C12.8667 33.8167 12.95 35.0333 13.05 36C11.0167 35.7 8.96667 35.55 6.9 35.55C5.93333 35.55 4.95 35.6 3.95 35.7C2.95 35.7667 1.96667 35.8667 1 36C1.2 32.4 1.33333 28.8667 1.4 25.4C1.46667 21.9 1.5 18.35 1.5 14.75C1.5 12.3167 1.45 9.9 1.35 7.5C1.25 5.06667 1.11667 2.63333 0.95 0.199999C3.15 0.366665 5.28333 0.483332 7.35 0.549997C9.45 0.616665 11.4 0.649999 13.2 0.649999C15 0.649999 16.9 0.616665 18.9 0.549997C20.9 0.483332 22.8 0.366665 24.6 0.199999C24.5667 0.666666 24.5167 1.13333 24.45 1.6C24.3833 2.03333 24.35 2.48333 24.35 2.95C24.35 3.41667 24.3667 3.86667 24.4 4.3C24.4667 4.73333 24.5333 5.18333 24.6 5.65C23.5 5.58333 22.35 5.53333 21.15 5.5C19.95 5.43333 18.8 5.38333 17.7 5.35C16.6 5.28333 15.6 5.25 14.7 5.25C13.8 5.21666 13.1167 5.2 12.65 5.2C12.5833 6.9 12.5333 8.55 12.5 10.15C12.5 11.75 12.5 13.4 12.5 15.1C12.9 15.1 13.6167 15.1 14.65 15.1C15.6833 15.0667 16.8 15.0333 18 15C19.2333 14.9667 20.4167 14.9167 21.55 14.85C22.6833 14.7833 23.55 14.7 24.15 14.6C24.0833 14.9667 24.0167 15.4 23.95 15.9C23.9167 16.4 23.9 16.8667 23.9 17.3C23.9 17.7 23.9167 18.15 23.95 18.65C24.0167 19.15 24.0833 19.5833 24.15 19.95L18.55 19.55ZM30.4887 20.9C30.4887 16.7 30.4553 12.95 30.3887 9.65C30.3553 6.35 30.2053 3.2 29.9387 0.199999C31.0387 0.366665 32.072 0.483332 33.0387 0.549997C34.0387 0.616665 35.0887 0.649999 36.1887 0.649999C37.2553 0.649999 38.2887 0.616665 39.2887 0.549997C40.322 0.483332 41.3553 0.366665 42.3887 0.199999C42.2553 0.999999 42.1387 1.98333 42.0387 3.15C41.972 4.28333 41.9053 5.48333 41.8387 6.75C41.8053 8.01666 41.772 9.3 41.7387 10.6C41.7053 11.8667 41.6887 13.0333 41.6887 14.1V17.45C41.6887 19.2833 41.722 20.9833 41.7887 22.55C41.8887 24.1167 42.172 25.4833 42.6387 26.65C43.1053 27.8167 43.8553 28.7333 44.8887 29.4C45.9553 30.0667 47.4387 30.4 49.3387 30.4C50.5387 30.4 51.7053 30.1333 52.8387 29.6C54.0053 29.0333 54.872 28.2 55.4387 27.1C55.9053 26.2 56.1887 25.3 56.2887 24.4C56.3887 23.5 56.4553 22.4833 56.4887 21.35C56.522 20.75 56.5387 20.15 56.5387 19.55C56.5387 18.95 56.5387 18.35 56.5387 17.75V14.15C56.5387 12.05 56.4887 9.85 56.3887 7.55C56.322 5.25 56.172 2.8 55.9387 0.199999C56.6053 0.299998 57.2553 0.399997 57.8887 0.499998C58.522 0.599999 59.172 0.649999 59.8387 0.649999C60.472 0.649999 61.072 0.616665 61.6387 0.549997C62.2053 0.449999 62.772 0.333333 63.3387 0.199999C63.2387 1.73333 63.1387 3.4 63.0387 5.2C62.972 7 62.9053 8.75 62.8387 10.45C62.772 12.15 62.722 13.7333 62.6887 15.2C62.6553 16.6333 62.6387 17.7833 62.6387 18.65C62.6387 20.15 62.6053 21.5 62.5387 22.7C62.472 23.9 62.322 25.0167 62.0887 26.05C61.8553 27.05 61.522 28 61.0887 28.9C60.6553 29.7667 60.072 30.6333 59.3387 31.5C57.8387 33.2 55.9887 34.4333 53.7887 35.2C51.622 35.9333 49.222 36.3 46.5887 36.3C41.1887 36.3 37.1553 35.1 34.4887 32.7C31.822 30.2667 30.4887 26.3333 30.4887 20.9ZM81.6336 16.6C81.8003 16.6333 81.9503 16.6667 82.0836 16.7C82.2503 16.7 82.4169 16.7 82.5836 16.7H83.4836C85.5503 16.7 86.9836 16.1333 87.7836 15C88.6169 13.8333 89.0336 12.2833 89.0336 10.35C89.0336 8.95 88.8336 7.85 88.4336 7.05C88.0669 6.25 87.6003 5.65 87.0336 5.25C86.4669 4.81667 85.8336 4.55 85.1336 4.45C84.4669 4.35 83.8336 4.3 83.2336 4.3C82.9669 4.3 82.7003 4.31667 82.4336 4.35C82.1669 4.35 81.9003 4.36667 81.6336 4.4V16.6ZM93.6836 20.4C94.3836 21.5667 95.1336 22.8333 95.9336 24.2C96.7669 25.5333 97.6169 26.8833 98.4836 28.25C99.3503 29.6167 100.217 30.9667 101.084 32.3C101.95 33.6333 102.784 34.8667 103.584 36C102.417 35.8667 101.25 35.7667 100.084 35.7C98.9169 35.6 97.7503 35.55 96.5836 35.55C95.4503 35.55 94.3836 35.6 93.3836 35.7C92.3836 35.7667 91.3336 35.8667 90.2336 36C88.9003 33.4 87.5503 30.8333 86.1836 28.3C84.8503 25.7333 83.3836 23.15 81.7836 20.55H81.6336C81.6336 22.75 81.6503 25.2333 81.6836 28C81.7503 30.7333 81.8503 33.4 81.9836 36C81.0169 35.8667 80.0503 35.7667 79.0836 35.7C78.1169 35.6 77.1169 35.55 76.0836 35.55C75.1503 35.55 74.1669 35.6 73.1336 35.7C72.1336 35.7667 71.0669 35.8667 69.9336 36C70.1003 34.3 70.2336 32.2833 70.3336 29.95C70.4669 27.5833 70.5336 25.2 70.5336 22.8C70.5336 21.7 70.5169 20.3333 70.4836 18.7C70.4836 17.0333 70.4669 15.2 70.4336 13.2C70.4003 11.2 70.3503 9.1 70.2836 6.9C70.2169 4.66666 70.1336 2.43333 70.0336 0.199999C71.2003 0.366665 72.3503 0.483332 73.4836 0.549997C74.6503 0.616665 75.7669 0.649999 76.8336 0.649999C78.4336 0.649999 80.0169 0.583332 81.5836 0.449999C83.1836 0.283332 84.7836 0.199999 86.3836 0.199999C88.0503 0.199999 89.7169 0.316665 91.3836 0.549997C93.0836 0.783332 94.6003 1.25 95.9336 1.95C97.3003 2.61667 98.4003 3.58333 99.2336 4.85C100.1 6.08333 100.534 7.73333 100.534 9.8C100.534 12.3333 99.8003 14.3 98.3336 15.7C96.9003 17.1 94.9836 18.05 92.5836 18.55L93.6836 20.4ZM116.644 19C115.977 18.2333 115.277 17.4833 114.544 16.75C113.811 15.9833 113.094 15.2167 112.394 14.45V19.65C112.394 20.5833 112.411 21.7333 112.444 23.1C112.511 24.4667 112.577 25.9 112.644 27.4C112.711 28.9 112.777 30.4 112.844 31.9C112.944 33.4 113.027 34.7667 113.094 36C112.627 35.8667 112.161 35.7667 111.694 35.7C111.261 35.6 110.727 35.55 110.094 35.55C109.527 35.55 108.977 35.6 108.444 35.7C107.911 35.7667 107.327 35.8667 106.694 36C106.827 34.5667 106.944 33.05 107.044 31.45C107.177 29.85 107.277 28.2333 107.344 26.6C107.444 24.9667 107.511 23.35 107.544 21.75C107.611 20.15 107.644 18.6333 107.644 17.2C107.644 14.2667 107.611 11.4333 107.544 8.7C107.511 5.96667 107.411 3.13333 107.244 0.199999C107.944 0.333333 108.644 0.449999 109.344 0.549997C110.077 0.616665 110.794 0.649999 111.494 0.649999C112.161 0.649999 112.811 0.616665 113.444 0.549997C114.077 0.449999 114.711 0.333333 115.344 0.199999C116.277 1.43333 117.277 2.7 118.344 4C119.444 5.3 120.527 6.55 121.594 7.75C122.661 8.95 123.677 10.0833 124.644 11.15C125.611 12.2167 126.461 13.15 127.194 13.95C127.894 14.6833 128.527 15.3667 129.094 16C129.694 16.6333 130.261 17.2667 130.794 17.9C131.361 18.5 131.927 19.1167 132.494 19.75C133.061 20.3833 133.677 21.05 134.344 21.75C134.344 20.25 134.311 18.8 134.244 17.4C134.211 15.9667 134.177 14.5 134.144 13C134.111 11.7667 134.077 10.6167 134.044 9.55C134.011 8.45 133.961 7.38333 133.894 6.35C133.861 5.31667 133.811 4.3 133.744 3.3C133.711 2.3 133.661 1.26667 133.594 0.199999C134.261 0.366665 134.844 0.483332 135.344 0.549997C135.844 0.616665 136.394 0.649999 136.994 0.649999C137.561 0.649999 138.077 0.616665 138.544 0.549997C139.011 0.483332 139.494 0.366665 139.994 0.199999C139.927 1.46667 139.844 2.73333 139.744 4C139.644 5.26666 139.561 6.53333 139.494 7.8C139.361 11.2333 139.261 14.6 139.194 17.9C139.127 21.2 139.094 24.5667 139.094 28C139.094 29.3333 139.111 30.6667 139.144 32C139.177 33.3333 139.227 34.6667 139.294 36C138.761 35.8667 138.127 35.7667 137.394 35.7C136.661 35.6 135.927 35.55 135.194 35.55C134.427 35.55 133.727 35.6 133.094 35.7C132.461 35.8 131.877 35.9 131.344 36C130.211 34.6333 129.127 33.35 128.094 32.15C127.094 30.95 126.094 29.8 125.094 28.7C124.127 27.5667 123.177 26.4667 122.244 25.4C121.311 24.3333 120.361 23.25 119.394 22.15L116.644 19ZM158.589 19.4C158.589 22.2333 158.606 25.1167 158.639 28.05C158.706 30.95 158.856 33.6 159.089 36C158.156 35.8333 157.139 35.7167 156.039 35.65C154.972 35.5833 153.906 35.55 152.839 35.55C151.772 35.55 150.722 35.6 149.689 35.7C148.656 35.8 147.722 35.9 146.889 36C147.056 33.2 147.172 30.45 147.239 27.75C147.339 25.05 147.389 22.3 147.389 19.5C147.389 18.8333 147.372 18.0167 147.339 17.05C147.339 16.05 147.339 15.0333 147.339 14C147.339 12.9333 147.322 11.9167 147.289 10.95C147.289 9.95 147.289 9.11667 147.289 8.45C147.289 7.28333 147.256 5.96666 147.189 4.5C147.122 3.03333 147.022 1.6 146.889 0.199999C147.756 0.299998 148.756 0.399997 149.889 0.499998C151.022 0.599999 152.056 0.649999 152.989 0.649999C154.022 0.649999 155.089 0.616665 156.189 0.549997C157.289 0.449999 158.272 0.333333 159.139 0.199999C158.972 2.6 158.839 4.96666 158.739 7.3C158.639 9.63333 158.589 12 158.589 14.4V19.4ZM172.273 5.4C170.673 5.4 169.106 5.45 167.573 5.55C166.039 5.61666 164.506 5.73333 162.973 5.9C163.173 5 163.273 4.05 163.273 3.05C163.273 2.61666 163.239 2.18333 163.173 1.75C163.106 1.28333 163.039 0.766664 162.973 0.199999C165.473 0.433331 167.956 0.566665 170.423 0.6C172.923 0.633333 175.423 0.649999 177.923 0.649999C180.323 0.649999 182.773 0.633333 185.273 0.6C187.773 0.566665 190.339 0.433331 192.973 0.199999C192.906 0.599998 192.839 1.05 192.773 1.55C192.706 2.05 192.673 2.61667 192.673 3.25C192.673 3.75 192.706 4.23333 192.773 4.7C192.839 5.16666 192.906 5.56666 192.973 5.9C191.439 5.73333 189.906 5.61666 188.373 5.55C186.839 5.45 185.273 5.4 183.673 5.4C183.606 6.5 183.556 7.76666 183.523 9.2C183.523 10.6 183.523 12.0167 183.523 13.45V16.15C183.523 18.0833 183.523 19.9 183.523 21.6C183.556 23.3 183.573 24.95 183.573 26.55C183.606 28.15 183.656 29.7167 183.723 31.25C183.789 32.7833 183.873 34.3667 183.973 36C182.239 35.8333 180.873 35.7167 179.873 35.65C178.906 35.5833 178.189 35.55 177.723 35.55C176.323 35.55 175.139 35.6167 174.173 35.75C173.239 35.85 172.489 35.9333 171.923 36C172.023 35.0667 172.106 34.0167 172.173 32.85C172.239 31.6833 172.289 30.45 172.323 29.15C172.389 27.85 172.423 26.5333 172.423 25.2C172.456 23.8667 172.473 22.5833 172.473 21.35V16.9V14.75C172.473 13.4833 172.456 12.0333 172.423 10.4C172.389 8.73333 172.339 7.06666 172.273 5.4ZM197.139 20.9C197.139 16.7 197.106 12.95 197.039 9.65C197.006 6.35 196.856 3.2 196.589 0.199999C197.689 0.366665 198.722 0.483332 199.689 0.549997C200.689 0.616665 201.739 0.649999 202.839 0.649999C203.906 0.649999 204.939 0.616665 205.939 0.549997C206.972 0.483332 208.006 0.366665 209.039 0.199999C208.906 0.999999 208.789 1.98333 208.689 3.15C208.622 4.28333 208.556 5.48333 208.489 6.75C208.456 8.01666 208.422 9.3 208.389 10.6C208.356 11.8667 208.339 13.0333 208.339 14.1V17.45C208.339 19.2833 208.372 20.9833 208.439 22.55C208.539 24.1167 208.822 25.4833 209.289 26.65C209.756 27.8167 210.506 28.7333 211.539 29.4C212.606 30.0667 214.089 30.4 215.989 30.4C217.189 30.4 218.356 30.1333 219.489 29.6C220.656 29.0333 221.522 28.2 222.089 27.1C222.556 26.2 222.839 25.3 222.939 24.4C223.039 23.5 223.106 22.4833 223.139 21.35C223.172 20.75 223.189 20.15 223.189 19.55C223.189 18.95 223.189 18.35 223.189 17.75V14.15C223.189 12.05 223.139 9.85 223.039 7.55C222.972 5.25 222.822 2.8 222.589 0.199999C223.256 0.299998 223.906 0.399997 224.539 0.499998C225.172 0.599999 225.822 0.649999 226.489 0.649999C227.122 0.649999 227.722 0.616665 228.289 0.549997C228.856 0.449999 229.422 0.333333 229.989 0.199999C229.889 1.73333 229.789 3.4 229.689 5.2C229.622 7 229.556 8.75 229.489 10.45C229.422 12.15 229.372 13.7333 229.339 15.2C229.306 16.6333 229.289 17.7833 229.289 18.65C229.289 20.15 229.256 21.5 229.189 22.7C229.122 23.9 228.972 25.0167 228.739 26.05C228.506 27.05 228.172 28 227.739 28.9C227.306 29.7667 226.722 30.6333 225.989 31.5C224.489 33.2 222.639 34.4333 220.439 35.2C218.272 35.9333 215.872 36.3 213.239 36.3C207.839 36.3 203.806 35.1 201.139 32.7C198.472 30.2667 197.139 26.3333 197.139 20.9ZM248.284 16.6C248.451 16.6333 248.601 16.6667 248.734 16.7C248.901 16.7 249.067 16.7 249.234 16.7H250.134C252.201 16.7 253.634 16.1333 254.434 15C255.267 13.8333 255.684 12.2833 255.684 10.35C255.684 8.95 255.484 7.85 255.084 7.05C254.717 6.25 254.251 5.65 253.684 5.25C253.117 4.81667 252.484 4.55 251.784 4.45C251.117 4.35 250.484 4.3 249.884 4.3C249.617 4.3 249.351 4.31667 249.084 4.35C248.817 4.35 248.551 4.36667 248.284 4.4V16.6ZM260.334 20.4C261.034 21.5667 261.784 22.8333 262.584 24.2C263.417 25.5333 264.267 26.8833 265.134 28.25C266.001 29.6167 266.867 30.9667 267.734 32.3C268.601 33.6333 269.434 34.8667 270.234 36C269.067 35.8667 267.901 35.7667 266.734 35.7C265.567 35.6 264.401 35.55 263.234 35.55C262.101 35.55 261.034 35.6 260.034 35.7C259.034 35.7667 257.984 35.8667 256.884 36C255.551 33.4 254.201 30.8333 252.834 28.3C251.501 25.7333 250.034 23.15 248.434 20.55H248.284C248.284 22.75 248.301 25.2333 248.334 28C248.401 30.7333 248.501 33.4 248.634 36C247.667 35.8667 246.701 35.7667 245.734 35.7C244.767 35.6 243.767 35.55 242.734 35.55C241.801 35.55 240.817 35.6 239.784 35.7C238.784 35.7667 237.717 35.8667 236.584 36C236.751 34.3 236.884 32.2833 236.984 29.95C237.117 27.5833 237.184 25.2 237.184 22.8C237.184 21.7 237.167 20.3333 237.134 18.7C237.134 17.0333 237.117 15.2 237.084 13.2C237.051 11.2 237.001 9.1 236.934 6.9C236.867 4.66666 236.784 2.43333 236.684 0.199999C237.851 0.366665 239.001 0.483332 240.134 0.549997C241.301 0.616665 242.417 0.649999 243.484 0.649999C245.084 0.649999 246.667 0.583332 248.234 0.449999C249.834 0.283332 251.434 0.199999 253.034 0.199999C254.701 0.199999 256.367 0.316665 258.034 0.549997C259.734 0.783332 261.251 1.25 262.584 1.95C263.951 2.61667 265.051 3.58333 265.884 4.85C266.751 6.08333 267.184 7.73333 267.184 9.8C267.184 12.3333 266.451 14.3 264.984 15.7C263.551 17.1 261.634 18.05 259.234 18.55L260.334 20.4ZM288.995 30.95C289.461 30.95 290.095 30.95 290.895 30.95C291.728 30.9167 292.595 30.8833 293.495 30.85C294.395 30.8167 295.261 30.7833 296.095 30.75C296.961 30.6833 297.661 30.6333 298.195 30.6C298.128 31.0667 298.061 31.55 297.995 32.05C297.961 32.5167 297.945 32.9833 297.945 33.45C297.945 33.8833 297.961 34.3167 297.995 34.75C298.061 35.1833 298.128 35.6 298.195 36C296.161 35.8333 294.128 35.7167 292.095 35.65C290.095 35.5833 288.095 35.55 286.095 35.55C284.061 35.55 282.028 35.5833 279.995 35.65C277.961 35.7167 275.928 35.8333 273.895 36C273.995 35.3 274.061 34.6333 274.095 34C274.161 33.3667 274.195 32.6333 274.195 31.8C274.228 30.9333 274.245 29.9 274.245 28.7C274.278 27.4667 274.295 25.9 274.295 24V18.55C274.295 15.9167 274.278 13.75 274.245 12.05C274.245 10.3167 274.228 8.8 274.195 7.5C274.161 6.2 274.111 5 274.045 3.9C273.978 2.8 273.895 1.56667 273.795 0.199999C275.528 0.333333 277.261 0.449999 278.995 0.549997C280.728 0.616665 282.461 0.649999 284.195 0.649999C285.161 0.649999 286.261 0.649999 287.495 0.649999C288.761 0.616666 290.028 0.6 291.295 0.6C292.595 0.566665 293.845 0.516665 295.045 0.449999C296.245 0.383331 297.295 0.299998 298.195 0.199999C298.128 0.666666 298.061 1.11667 297.995 1.55C297.961 1.95 297.945 2.38333 297.945 2.85C297.945 3.31666 297.961 3.78333 297.995 4.25C298.061 4.71666 298.128 5.18333 298.195 5.65C296.928 5.58333 295.678 5.51667 294.445 5.45C293.211 5.35 291.978 5.3 290.745 5.3H285.495V15.1C285.895 15.1 286.495 15.1 287.295 15.1C288.095 15.0667 289.028 15.0333 290.095 15C291.195 14.9667 292.395 14.9167 293.695 14.85C294.995 14.7833 296.345 14.7 297.745 14.6C297.678 15.0667 297.611 15.5167 297.545 15.95C297.511 16.35 297.495 16.7833 297.495 17.25C297.495 18.1167 297.578 19.0167 297.745 19.95C296.745 19.8833 295.778 19.8333 294.845 19.8C293.945 19.7333 293.011 19.6833 292.045 19.65C291.111 19.5833 290.111 19.55 289.045 19.55C287.978 19.5167 286.795 19.5 285.495 19.5V30.95H288.995Z" fill="#FFE864"/>
</svg>
