<svg width="32" height="33" viewBox="0 0 32 33" fill="none" xmlns="http://www.w3.org/2000/svg">
<path d="M15.9432 1.19238C24.3224 1.19238 31.115 7.98505 31.1151 16.3643C31.1151 24.7435 24.3224 31.5361 15.9432 31.5361C7.56397 31.5361 0.771301 24.7435 0.771301 16.3643C0.77136 7.98509 7.56401 1.19244 15.9432 1.19238Z" fill="white" stroke="#E5E5E5"/>
<mask id="mask0_100_25877" style="mask-type:alpha" maskUnits="userSpaceOnUse" x="4" y="4" width="24" height="25">
<rect x="4.18796" y="4.61035" width="23.508" height="23.508" fill="#D9D9D9"/>
</mask>
<g mask="url(#mask0_100_25877)">
<path d="M15.9428 23.8617L15.2006 23.1912C13.6021 21.7308 12.2797 20.4807 11.2336 19.441C10.1877 18.4011 9.36205 17.484 8.75672 16.6898C8.15139 15.8956 7.72849 15.177 7.48802 14.5339C7.24755 13.891 7.12732 13.2443 7.12732 12.5938C7.12732 11.348 7.55054 10.302 8.39699 9.45571C9.24328 8.60926 10.2893 8.18604 11.5351 8.18604C12.3965 8.18604 13.2046 8.40642 13.9593 8.8472C14.714 9.28797 15.3752 9.92905 15.9428 10.7704C16.5104 9.92905 17.1716 9.28797 17.9263 8.8472C18.681 8.40642 19.4891 8.18604 20.3506 8.18604C21.5963 8.18604 22.6423 8.60926 23.4886 9.45571C24.3351 10.302 24.7583 11.348 24.7583 12.5938C24.7583 13.2443 24.6381 13.891 24.3976 14.5339C24.1571 15.177 23.7342 15.8956 23.1289 16.6898C22.5236 17.484 21.701 18.4011 20.6613 19.441C19.6216 20.4807 18.2961 21.7308 16.685 23.1912L15.9428 23.8617ZM15.9428 22.5357C17.51 21.1192 18.7997 19.9058 19.8118 18.8956C20.824 17.8853 21.6239 17.0087 22.2116 16.2659C22.7993 15.5231 23.2074 14.8652 23.436 14.292C23.6645 13.7187 23.7788 13.1526 23.7788 12.5938C23.7788 11.6143 23.4523 10.798 22.7993 10.145C22.1463 9.49203 21.3301 9.16553 20.3506 9.16553C19.5707 9.16553 18.8512 9.38813 18.192 9.83331C17.5326 10.2785 16.9424 10.9487 16.4213 11.844H15.4643C14.9307 10.9361 14.3373 10.2627 13.6843 9.82376C13.0313 9.38494 12.3149 9.16553 11.5351 9.16553C10.5681 9.16553 9.75499 9.49203 9.09562 10.145C8.43642 10.798 8.10682 11.6143 8.10682 12.5938C8.10682 13.1526 8.22109 13.7187 8.44964 14.292C8.67819 14.8652 9.08632 15.5231 9.67402 16.2659C10.2617 17.0087 11.0616 17.8821 12.0738 18.8861C13.0859 19.8901 14.3756 21.1066 15.9428 22.5357Z" fill="#1C1B1F"/>
</g>
</svg>
