<svg width="51" height="51" viewBox="0 0 51 51" fill="none" xmlns="http://www.w3.org/2000/svg">
<mask id="mask0_21_125" style="mask-type:alpha" maskUnits="userSpaceOnUse" x="0" y="0" width="51" height="51">
<rect x="0.653839" y="0.806885" width="49.8462" height="49.8462" fill="#D9D9D9"/>
</mask>
<g mask="url(#mask0_21_125)">
<path d="M10.5592 38.1915H9.44079L8.65 34.0376H6.88461V26.9958C6.88461 26.0668 7.21138 25.2774 7.86492 24.6276C8.51881 23.9779 9.31046 23.653 10.2399 23.653H11.0385V18.7001C11.0385 17.771 11.3652 16.9795 12.0188 16.3256C12.6727 15.6721 13.4643 15.3453 14.3937 15.3453H36.7601C37.6895 15.3453 38.4812 15.6721 39.1351 16.3256C39.7886 16.9795 40.1154 17.771 40.1154 18.7001V23.653H40.914C41.8434 23.653 42.635 23.9798 43.2889 24.6333C43.9425 25.2872 44.2692 26.0789 44.2692 27.0083V34.0376H42.5038L41.7131 38.1915H40.5946L39.8038 34.0376H11.35L10.5592 38.1915ZM26.6154 23.653H38.0385V18.7001C38.0385 18.3276 37.9187 18.0215 37.6791 17.7816C37.4393 17.542 37.1329 17.4223 36.7601 17.4223H26.6154V23.653ZM13.1154 23.653H24.5385V17.4223H14.3937C14.0209 17.4223 13.7146 17.542 13.4747 17.7816C13.2352 18.0215 13.1154 18.3276 13.1154 18.7001V23.653ZM8.96154 31.9607H42.1923V27.0083C42.1923 26.6355 42.0725 26.3291 41.833 26.0893C41.5931 25.8497 41.2868 25.73 40.914 25.73H10.2399C9.86707 25.73 9.56073 25.8497 9.32084 26.0893C9.08131 26.3291 8.96154 26.6355 8.96154 27.0083V31.9607Z" fill="#0DA79E"/>
</g>
</svg>
