<svg width="34" height="40" viewBox="0 0 34 40" fill="none" xmlns="http://www.w3.org/2000/svg">
<path d="M16.7693 39.6621C14.4369 37.7607 11.8607 36.2601 9.04057 35.1604C6.2208 34.0606 3.25858 33.4043 0.153931 33.1914V13.78C3.33058 13.9666 6.3487 14.7248 9.20828 16.0548C12.0682 17.3847 14.5885 19.031 16.7693 20.9937C18.9501 19.031 21.4704 17.3847 24.3304 16.0548C27.1899 14.7248 30.208 13.9666 33.3847 13.78V33.1914C30.2721 33.4043 27.3078 34.0606 24.4918 35.1604C21.6759 36.2601 19.1017 37.7607 16.7693 39.6621ZM16.7693 37.0576C18.9501 35.4574 21.2693 34.1669 23.727 33.1863C26.1847 32.2056 28.7116 31.5576 31.3078 31.2422V16.1129C28.5946 16.5629 26.0045 17.4382 23.5375 18.7387C21.0704 20.0395 18.8144 21.7125 16.7693 23.7575C14.7242 21.7125 12.4682 20.0395 10.0011 18.7387C7.5341 17.4382 4.94401 16.5629 2.23085 16.1129V31.2422C4.82701 31.5576 7.35393 32.2056 9.81162 33.1863C12.2693 34.1669 14.5885 35.4574 16.7693 37.0576ZM16.7693 13.6206C14.924 13.6206 13.3443 12.9636 12.0303 11.6496C10.7163 10.3353 10.0593 8.75558 10.0593 6.91058C10.0593 5.06523 10.7163 3.48556 12.0303 2.17156C13.3443 0.857562 14.924 0.200562 16.7693 0.200562C18.6147 0.200562 20.1943 0.857562 21.5083 2.17156C22.8223 3.48556 23.4793 5.06523 23.4793 6.91058C23.4793 8.75558 22.8223 10.3353 21.5083 11.6496C20.1943 12.9636 18.6147 13.6206 16.7693 13.6206ZM16.7709 11.5437C18.0454 11.5437 19.136 11.0899 20.0425 10.1823C20.9491 9.27464 21.4024 8.18356 21.4024 6.90902C21.4024 5.63448 20.9486 4.54393 20.041 3.63735C19.1334 2.73077 18.0423 2.27748 16.7678 2.27748C15.4932 2.27748 14.4027 2.73112 13.4961 3.63839C12.5895 4.546 12.1362 5.63708 12.1362 6.91162C12.1362 8.18616 12.59 9.27672 13.4976 10.1833C14.4053 11.0902 15.4963 11.5437 16.7709 11.5437Z" fill="#0DA79E"/>
</svg>
