<svg width="141" height="25" viewBox="0 0 141 25" fill="none" xmlns="http://www.w3.org/2000/svg">
<path d="M4.346 0.966C5.864 4.09 7.393 7.126 8.933 10.074C10.495 13.022 12.123 16.047 13.817 19.149C14.037 18.731 14.356 18.137 14.774 17.367C15.192 16.575 15.676 15.673 16.226 14.661C16.776 13.649 17.359 12.56 17.975 11.394C18.613 10.206 19.251 9.007 19.889 7.797C20.549 6.587 21.198 5.399 21.836 4.233C22.474 3.067 23.068 1.978 23.618 0.966H24.047C24.289 3.078 24.509 5.124 24.707 7.104C24.927 9.062 25.147 10.998 25.367 12.912C25.587 14.804 25.807 16.685 26.027 18.555C26.247 20.403 26.489 22.24 26.753 24.066C26.489 24.022 26.225 24 25.961 24C25.719 24 25.466 24 25.202 24C24.938 24 24.674 24 24.41 24C24.168 24 23.915 24.022 23.651 24.066C23.409 21.14 23.167 18.302 22.925 15.552C22.683 12.802 22.386 9.997 22.034 7.137H21.968C20.45 9.909 18.954 12.67 17.48 15.42C16.028 18.148 14.642 21.008 13.322 24H13.025C11.705 21.228 10.319 18.456 8.867 15.684C7.437 12.89 5.996 10.041 4.544 7.137H4.478C4.324 8.501 4.148 9.986 3.95 11.592C3.774 13.176 3.609 14.749 3.455 16.311C3.301 17.851 3.169 19.314 3.059 20.7C2.949 22.064 2.894 23.186 2.894 24.066C2.542 24.022 2.157 24 1.739 24C1.321 24 0.936 24.022 0.584 24.066C0.87 22.284 1.167 20.403 1.475 18.423C1.783 16.443 2.08 14.452 2.366 12.45C2.652 10.448 2.916 8.479 3.158 6.543C3.4 4.585 3.609 2.726 3.785 0.966H4.346ZM29.7122 12.78C29.7122 10.91 30.0092 9.249 30.6032 7.797C31.2192 6.323 32.0662 5.08 33.1442 4.068C34.2442 3.056 35.5532 2.286 37.0712 1.758C38.5892 1.23 40.2502 0.966 42.0542 0.966C43.8802 0.966 45.5522 1.23 47.0702 1.758C48.5882 2.286 49.8862 3.056 50.9642 4.068C52.0642 5.08 52.9112 6.323 53.5052 7.797C54.1212 9.249 54.4292 10.91 54.4292 12.78C54.4292 14.65 54.1212 16.322 53.5052 17.796C52.9112 19.248 52.0642 20.48 50.9642 21.492C49.8862 22.504 48.5882 23.263 47.0702 23.769C45.5522 24.253 43.8802 24.495 42.0542 24.495C40.2502 24.495 38.5892 24.253 37.0712 23.769C35.5532 23.263 34.2442 22.504 33.1442 21.492C32.0662 20.48 31.2192 19.248 30.6032 17.796C30.0092 16.322 29.7122 14.65 29.7122 12.78ZM51.1952 12.78C51.1952 10.954 50.9642 9.381 50.5022 8.061C50.0402 6.719 49.3912 5.619 48.5552 4.761C47.7412 3.881 46.7732 3.232 45.6512 2.814C44.5512 2.396 43.3522 2.187 42.0542 2.187C40.7782 2.187 39.5792 2.396 38.4572 2.814C37.3572 3.232 36.3892 3.881 35.5532 4.761C34.7392 5.619 34.1012 6.719 33.6392 8.061C33.1772 9.381 32.9462 10.954 32.9462 12.78C32.9462 14.606 33.1772 16.19 33.6392 17.532C34.1012 18.852 34.7392 19.952 35.5532 20.832C36.3892 21.69 37.3572 22.328 38.4572 22.746C39.5792 23.164 40.7782 23.373 42.0542 23.373C43.3522 23.373 44.5512 23.164 45.6512 22.746C46.7732 22.328 47.7412 21.69 48.5552 20.832C49.3912 19.952 50.0402 18.852 50.5022 17.532C50.9642 16.19 51.1952 14.606 51.1952 12.78ZM59.0494 9.942C59.0494 8.49 59.0164 7.071 58.9504 5.685C58.9064 4.277 58.8514 2.847 58.7854 1.395C59.6214 1.439 60.4464 1.483 61.2604 1.527C62.0964 1.549 62.9324 1.56 63.7684 1.56C64.6044 1.56 65.4294 1.538 66.2434 1.494C67.0794 1.428 67.9154 1.395 68.7514 1.395C70.6874 1.395 72.3374 1.648 73.7014 2.154C75.0874 2.66 76.2204 3.386 77.1004 4.332C77.9804 5.256 78.6184 6.4 79.0144 7.764C79.4324 9.106 79.6414 10.624 79.6414 12.318C79.6414 14.518 79.2564 16.377 78.4864 17.895C77.7384 19.391 76.7704 20.601 75.5824 21.525C74.4164 22.449 73.1184 23.109 71.6884 23.505C70.2804 23.879 68.9274 24.066 67.6294 24.066C66.8814 24.066 66.1444 24.055 65.4184 24.033C64.6924 24.011 63.9554 24 63.2074 24C62.4594 24 61.7224 24 60.9964 24C60.2704 24 59.5334 24.022 58.7854 24.066C58.8514 22.702 58.9064 21.316 58.9504 19.908C59.0164 18.5 59.0494 17.07 59.0494 15.618V9.942ZM61.7554 15.618C61.7554 17.994 61.8214 20.326 61.9534 22.614C62.4154 22.724 63.0424 22.812 63.8344 22.878C64.6264 22.922 65.4404 22.944 66.2764 22.944C67.4864 22.944 68.6964 22.801 69.9064 22.515C71.1164 22.229 72.1944 21.69 73.1404 20.898C74.1084 20.106 74.8894 19.028 75.4834 17.664C76.0994 16.278 76.4074 14.496 76.4074 12.318C76.4074 10.404 76.1654 8.831 75.6814 7.599C75.2194 6.367 74.5704 5.399 73.7344 4.695C72.9204 3.969 71.9414 3.474 70.7974 3.21C69.6534 2.924 68.3994 2.781 67.0354 2.781C66.0454 2.781 65.1214 2.814 64.2634 2.88C63.4054 2.946 62.6354 3.023 61.9534 3.111C61.8874 4.167 61.8324 5.278 61.7884 6.444C61.7664 7.588 61.7554 8.754 61.7554 9.942V15.618ZM84.734 9.909C84.734 8.457 84.701 7.027 84.635 5.619C84.591 4.211 84.536 2.803 84.47 1.395C85.46 1.439 86.439 1.483 87.407 1.527C88.397 1.549 89.387 1.56 90.377 1.56C91.367 1.56 92.346 1.549 93.314 1.527C94.282 1.483 95.261 1.439 96.251 1.395C96.185 1.725 96.152 2.055 96.152 2.385C96.152 2.715 96.185 3.045 96.251 3.375C95.547 3.331 94.898 3.287 94.304 3.243C93.732 3.199 93.116 3.155 92.456 3.111C91.818 3.067 91.114 3.034 90.344 3.012C89.574 2.968 88.65 2.946 87.572 2.946C87.55 3.65 87.517 4.321 87.473 4.959C87.451 5.597 87.44 6.323 87.44 7.137C87.44 7.995 87.44 8.831 87.44 9.645C87.462 10.459 87.473 11.075 87.473 11.493C88.441 11.493 89.31 11.482 90.08 11.46C90.85 11.438 91.554 11.416 92.192 11.394C92.83 11.35 93.413 11.317 93.941 11.295C94.491 11.251 95.008 11.207 95.492 11.163C95.426 11.493 95.393 11.834 95.393 12.186C95.393 12.516 95.426 12.846 95.492 13.176C94.92 13.11 94.249 13.055 93.479 13.011C92.731 12.967 91.972 12.945 91.202 12.945C90.454 12.923 89.739 12.912 89.057 12.912C88.397 12.89 87.869 12.879 87.473 12.879C87.473 13.077 87.462 13.297 87.44 13.539C87.44 13.759 87.44 14.045 87.44 14.397V15.684V17.664C87.44 18.918 87.44 19.952 87.44 20.766C87.462 21.58 87.484 22.196 87.506 22.614C88.232 22.614 89.002 22.614 89.816 22.614C90.652 22.614 91.466 22.603 92.258 22.581C93.072 22.537 93.831 22.493 94.535 22.449C95.261 22.383 95.888 22.295 96.416 22.185C96.372 22.339 96.339 22.515 96.317 22.713C96.317 22.889 96.317 23.054 96.317 23.208C96.317 23.56 96.35 23.846 96.416 24.066C95.426 24.022 94.436 24 93.446 24C92.478 24 91.488 24 90.476 24C89.464 24 88.463 24 87.473 24C86.483 24 85.482 24.022 84.47 24.066C84.536 22.658 84.591 21.261 84.635 19.875C84.701 18.467 84.734 17.037 84.734 15.585V9.909ZM101.234 9.942C101.234 8.49 101.201 7.071 101.135 5.685C101.091 4.277 101.036 2.847 100.97 1.395C101.608 1.439 102.235 1.483 102.851 1.527C103.467 1.549 104.094 1.56 104.732 1.56C105.37 1.56 105.997 1.538 106.613 1.494C107.229 1.428 107.856 1.395 108.494 1.395C109.418 1.395 110.298 1.483 111.134 1.659C111.97 1.835 112.696 2.132 113.312 2.55C113.95 2.946 114.445 3.474 114.797 4.134C115.171 4.794 115.358 5.619 115.358 6.609C115.358 7.665 115.116 8.578 114.632 9.348C114.17 10.096 113.598 10.723 112.916 11.229C112.234 11.713 111.497 12.098 110.705 12.384C109.935 12.648 109.231 12.824 108.593 12.912C108.857 13.242 109.22 13.704 109.682 14.298C110.144 14.892 110.661 15.552 111.233 16.278C111.805 16.982 112.399 17.73 113.015 18.522C113.631 19.292 114.225 20.04 114.797 20.766C115.369 21.47 115.908 22.119 116.414 22.713C116.92 23.307 117.327 23.758 117.635 24.066C117.305 24.022 116.975 24 116.645 24C116.315 24 115.985 24 115.655 24C115.347 24 115.028 24 114.698 24C114.368 24 114.049 24.022 113.741 24.066C113.411 23.604 112.905 22.911 112.223 21.987C111.563 21.063 110.826 20.073 110.012 19.017C109.198 17.961 108.362 16.916 107.504 15.882C106.668 14.826 105.898 13.935 105.194 13.209H103.94V15.618C103.94 17.07 103.962 18.5 104.006 19.908C104.072 21.316 104.138 22.702 104.204 24.066C103.698 24.022 103.159 24 102.587 24C102.015 24 101.476 24.022 100.97 24.066C101.036 22.702 101.091 21.316 101.135 19.908C101.201 18.5 101.234 17.07 101.234 15.618V9.942ZM103.94 11.823C104.248 11.889 104.578 11.933 104.93 11.955C105.304 11.977 105.711 11.988 106.151 11.988C106.833 11.988 107.537 11.911 108.263 11.757C109.011 11.603 109.693 11.339 110.309 10.965C110.925 10.569 111.431 10.052 111.827 9.414C112.245 8.754 112.454 7.929 112.454 6.939C112.454 6.081 112.289 5.377 111.959 4.827C111.651 4.255 111.244 3.804 110.738 3.474C110.232 3.144 109.682 2.924 109.088 2.814C108.494 2.682 107.911 2.616 107.339 2.616C106.569 2.616 105.931 2.638 105.425 2.682C104.919 2.704 104.49 2.737 104.138 2.781C104.094 3.991 104.05 5.19 104.006 6.378C103.962 7.566 103.94 8.754 103.94 9.942V11.823ZM139.987 24.495C137.457 21.569 134.762 18.577 131.902 15.519C129.042 12.439 126.182 9.381 123.322 6.345C123.3 6.961 123.278 7.786 123.256 8.82C123.234 9.854 123.223 11.262 123.223 13.044C123.223 13.506 123.223 14.078 123.223 14.76C123.245 15.442 123.256 16.157 123.256 16.905C123.278 17.653 123.3 18.412 123.322 19.182C123.344 19.952 123.366 20.667 123.388 21.327C123.41 21.987 123.432 22.57 123.454 23.076C123.476 23.56 123.498 23.89 123.52 24.066C123.168 24.022 122.783 24 122.365 24C121.925 24 121.518 24.022 121.144 24.066C121.188 23.846 121.232 23.439 121.276 22.845C121.342 22.251 121.397 21.547 121.441 20.733C121.485 19.897 121.529 18.995 121.573 18.027C121.639 17.059 121.683 16.091 121.705 15.123C121.749 14.155 121.782 13.209 121.804 12.285C121.826 11.361 121.837 10.536 121.837 9.81C121.837 7.698 121.826 5.883 121.804 4.365C121.804 2.847 121.782 1.714 121.738 0.966H122.266C123.608 2.418 125.038 3.98 126.556 5.652C128.096 7.302 129.614 8.941 131.11 10.569C132.628 12.175 134.058 13.704 135.4 15.156C136.764 16.586 137.952 17.807 138.964 18.819V14.331C138.964 12.021 138.942 9.777 138.898 7.599C138.876 5.399 138.81 3.331 138.7 1.395C139.14 1.505 139.514 1.56 139.822 1.56C140.086 1.56 140.438 1.505 140.878 1.395C140.834 1.879 140.779 2.605 140.713 3.573C140.669 4.541 140.614 5.575 140.548 6.675C140.504 7.775 140.46 8.853 140.416 9.909C140.372 10.965 140.35 11.812 140.35 12.45C140.35 13 140.35 13.66 140.35 14.43C140.35 15.178 140.35 15.959 140.35 16.773C140.372 17.587 140.383 18.412 140.383 19.248C140.405 20.062 140.416 20.832 140.416 21.558C140.438 22.262 140.449 22.878 140.449 23.406C140.449 23.89 140.449 24.253 140.449 24.495H139.987Z" fill="white"/>
</svg>
