<svg xmlns="http://www.w3.org/2000/svg" width="54.885" height="51.344" viewBox="0 0 54.885 51.344">
  <path id="retail-delivery-man" d="M51.988,42.269a44.708,44.708,0,0,0-13.359-4.99l.322-.483a.708.708,0,0,0,.161-.8l-.8-3.38a18.744,18.744,0,0,0,3.38-10.945V16.356a.158.158,0,0,0,.161-.161,5.141,5.141,0,0,0,1.77-3.863A12.263,12.263,0,0,0,31.225.1H23.177A12.612,12.612,0,0,0,10.623,12.332a5.141,5.141,0,0,0,1.77,3.863h.161v5.472A19.272,19.272,0,0,0,16.1,32.612l-.8,3.38a1.451,1.451,0,0,0,.161.8l.322.483a49.551,49.551,0,0,0-13.359,4.99A5.071,5.071,0,0,0,0,46.615v3.863a.9.9,0,0,0,.8.966H53.919a1.02,1.02,0,0,0,.966-.8V46.615A5.549,5.549,0,0,0,51.988,42.269ZM37.019,34.222l.322,1.61-.966,1.288-.161.161L31.225,44.2,28.81,38.729a12.189,12.189,0,0,0,7.082-3.38l1.127-1.127Zm3.7-19.636h0a.5.5,0,0,1-.322.161,3.235,3.235,0,0,1-1.288.644h-.966a56.552,56.552,0,0,0-19.475-.322c-.644.161-1.449.161-2.092.322h-.322a3.235,3.235,0,0,1-2.092-.644A2.569,2.569,0,0,1,13.037,13.3l3.863-.8a57.151,57.151,0,0,1,20.924,0l3.863.8a2.5,2.5,0,0,1-.966,1.288ZM23.338,1.71h8.048a10.681,10.681,0,0,1,10.623,9.818l-3.863-.644a60.692,60.692,0,0,0-21.568,0l-3.7.644A10.428,10.428,0,0,1,23.338,1.71ZM14.647,17a6.136,6.136,0,0,0,2.414.161,56.28,56.28,0,0,1,20.763,0h.644A6.6,6.6,0,0,0,40.238,17v4.668a16.367,16.367,0,0,1-3.38,10.14h0l-.322.322a14.511,14.511,0,0,1-1.449,1.61,12.131,12.131,0,0,1-7.565,3.38H27.2a11.9,11.9,0,0,1-4.668-1.288,14.847,14.847,0,0,1-4.185-3.541l-.322-.322h0a16.367,16.367,0,0,1-3.38-10.14V17ZM26.074,38.729,23.66,44.2,18.67,37.28h-.161l-.966-1.449.322-1.61.322.322a13.554,13.554,0,0,0,7.887,4.185ZM52.953,49.673H1.77V46.615a2.975,2.975,0,0,1,1.77-2.736c5.794-3.058,9.979-4.668,13.681-4.99l5.633,7.726a.836.836,0,0,0,.644.322h.161a.158.158,0,0,1,.161.161h0a.718.718,0,0,0,.644-.483l2.9-6.438,1.288,2.575,1.61,3.541c.161.322.322.483.644.483h.161a.836.836,0,0,0,.644-.322L37.5,38.568a44.992,44.992,0,0,1,13.681,4.99,3.206,3.206,0,0,1,1.77,2.9v3.219ZM25.591,8.952h3.7a1.02,1.02,0,0,0,.966-.8V3.641a.9.9,0,0,0-.8-.966H25.591a.9.9,0,0,0-.966.8V8.148a.905.905,0,0,0,.966.8Zm.8-4.507h1.77V7.182H26.4Z" transform="translate(0 -0.1)" fill="#f47332"/>
</svg>
