<svg xmlns="http://www.w3.org/2000/svg" width="68.714" height="42.663" viewBox="0 0 68.714 42.663">
  <path id="retail-free-shipping" d="M13.712,33.981a2.211,2.211,0,1,0,.152,4.418A2.179,2.179,0,0,0,16,36.266,2.156,2.156,0,0,0,13.712,33.981Zm41.137,0A2.211,2.211,0,1,0,55,38.4a2.179,2.179,0,0,0,2.133-2.133A2.156,2.156,0,0,0,54.849,33.981ZM51.5,26.211H49.212a1.293,1.293,0,0,0-1.219,1.067A1.293,1.293,0,0,0,49.06,28.5H51.5a1.293,1.293,0,0,0,1.219-1.067A1.653,1.653,0,0,0,51.5,26.211Zm15.541-2.285L62.62,22.249,59.725,11.28a3.152,3.152,0,0,0-3.352-2.438H49.06v-6.7A2.12,2.12,0,0,0,46.774.005H2.285A2.214,2.214,0,0,0,0,2.138v32.91a2.12,2.12,0,0,0,2.285,2.133H7.009a6.978,6.978,0,0,0,8.227,5.333,7.062,7.062,0,0,0,5.333-5.333H48.145a6.978,6.978,0,0,0,8.227,5.333,7.062,7.062,0,0,0,5.333-5.333h4.723a2.214,2.214,0,0,0,2.285-2.133V26.058A2.7,2.7,0,0,0,67.038,23.925ZM2.285,2.138H46.927v8.684a10.248,10.248,0,0,1-10.208,9.9H2.285V2.138ZM13.712,40.533a4.348,4.348,0,0,1,.457-8.684,4.366,4.366,0,0,1,4.114,4.418A4.531,4.531,0,0,1,13.712,40.533Zm41.137,0a4.348,4.348,0,0,1,.457-8.684,4.366,4.366,0,0,1,4.114,4.418A4.531,4.531,0,0,1,54.849,40.533Zm11.427-5.485H61.553a6.744,6.744,0,0,0-3.961-4.875h-.3l-.152-.152h0l-.3-.152H52.412l-.3.152h0l-.152.152h-.3a7.108,7.108,0,0,0-3.961,4.875H20.416a6.744,6.744,0,0,0-3.961-4.875h-.3L16,30.02h0l-.3-.152H11.732l-.3.152h0l-.152.152h-.3a7.108,7.108,0,0,0-3.961,4.875H2.285V23.011H36.566A12.256,12.256,0,0,0,49.06,10.975h7.313a1.429,1.429,0,0,1,1.219.914l2.59,10.056H55.154a1.5,1.5,0,0,1-1.524-1.371V15.241a1.177,1.177,0,0,0-1.219-1.067,1.041,1.041,0,0,0-1.067,1.067v5.18a3.741,3.741,0,0,0,3.809,3.657h6.094l5.028,1.828v9.142ZM12.646,4.423H6.856a1.019,1.019,0,0,0-1.067.914V17.526a1.177,1.177,0,0,0,1.219,1.067,1.041,1.041,0,0,0,1.067-1.067V12.041h3.5A1.293,1.293,0,0,0,12.8,10.975a1.293,1.293,0,0,0-1.067-1.219H8.075v-3.2h4.571A1.145,1.145,0,0,0,13.712,5.49a1.041,1.041,0,0,0-1.067-1.067ZM32,6.556A1.293,1.293,0,0,0,33.214,5.49a1.293,1.293,0,0,0-1.067-1.219H26.206a1.019,1.019,0,0,0-1.067.914V17.374a1.041,1.041,0,0,0,1.067,1.067H32c.609,0,1.067-.3,1.067-.914v-.152A1.041,1.041,0,0,0,32,16.307H27.272V12.041h2.285a1.293,1.293,0,0,0,1.219-1.067A1.293,1.293,0,0,0,29.71,9.756H27.425v-3.2Zm10.36,10.97a1.041,1.041,0,0,0-1.067-1.067H36.566V12.041h2.285a1.293,1.293,0,0,0,1.219-1.067A1.293,1.293,0,0,0,39,9.756H36.566v-3.2h4.571A1.293,1.293,0,0,0,42.356,5.49a1.293,1.293,0,0,0-1.067-1.219H35.347a1.019,1.019,0,0,0-1.067.914V17.374a1.041,1.041,0,0,0,1.067,1.067h5.79c.609.152,1.067-.3,1.219-.914ZM20.264,12.651a4.538,4.538,0,0,0,2.59-3.961,4.554,4.554,0,0,0-4.571-4.418H16a1.019,1.019,0,0,0-1.067.914V17.374A1.177,1.177,0,0,0,16.15,18.44a1.041,1.041,0,0,0,1.067-1.067V13.108h.609l4.266,5.028a1.086,1.086,0,0,0,.914.457c.3,0,.457-.152.762-.152a.992.992,0,0,0,.3-1.371v-.152Zm.3-3.961a2.214,2.214,0,0,1-2.285,2.133H17.064V6.556h1.219A2.214,2.214,0,0,1,20.568,8.689Z" transform="translate(0 0.01)" fill="#f47332"/>
</svg>
