<svg xmlns="http://www.w3.org/2000/svg" width="56.442" height="56.442" viewBox="0 0 56.442 56.442">
  <path id="retail-247" d="M53.588,46.893a48.291,48.291,0,0,0-13.743-5.286l.352-.529c.176-.176.352-.529.176-.7l-.881-3.524a6.181,6.181,0,0,0,.881-1.41c3.524-1.233,5.286-3.171,5.638-6.167a3.057,3.057,0,0,0,2.819-3V19.231a2.936,2.936,0,0,0-2.819-3C45.836,10.6,43.369.026,28.217.026a24.616,24.616,0,0,0-9.338,1.938A12.217,12.217,0,0,0,5.488,22.4c.7.352,1.233.7,1.938,1.057V26.1a3.126,3.126,0,0,0,3.171,3h1.41a3.319,3.319,0,0,0,1.41-.352,21.153,21.153,0,0,0,3.348,7.929L15.883,40.2a1.059,1.059,0,0,0,.176.7l.352.529A48.291,48.291,0,0,0,2.669,46.717,5.551,5.551,0,0,0,.026,51.474v4.052a.944.944,0,0,0,.881.881H55.526a.832.832,0,0,0,.881-.881V51.3A5.018,5.018,0,0,0,53.588,46.893ZM28.217,44.6l2.29,5.11H25.926Zm-3,7.048h5.99l.529,2.819H24.693ZM38.083,38.612l.352,1.762-.881,1.233-.176.176L33.5,47.245l-1.233,1.762L29.8,43.369a13.034,13.034,0,0,0,8.1-4.229c0-.352,0-.529.176-.529Zm3.7-5.814a27.235,27.235,0,0,0,1.233-4.052,2.547,2.547,0,0,0,1.233.352,6.074,6.074,0,0,1-2.467,3.7Zm5.11-13.743V26.1a1.016,1.016,0,0,1-1.057,1.057h-1.41A1.016,1.016,0,0,1,43.369,26.1V19.055A1.016,1.016,0,0,1,44.426,18h1.41c.529-.176,1.057.352,1.057,1.057ZM28.217,1.964c5.814,0,15.5,1.938,16.033,14.271a2.5,2.5,0,0,0-1.057.352A15.116,15.116,0,0,0,28.393,3.9,16.51,16.51,0,0,0,22.4,5.136a15.885,15.885,0,0,0-1.586-1.762A16.828,16.828,0,0,1,28.217,1.964ZM1.964,12.183A10.406,10.406,0,0,1,20.993,6.369a.173.173,0,0,0,.176.176,8.772,8.772,0,0,1,1.586,5.11h0v.881h0v.529h0a10.285,10.285,0,0,1-8.633,9.162h-.176a10.211,10.211,0,0,1-11.629-8.81c-.352-.176-.352-.7-.352-1.233ZM13.064,26.1a1.016,1.016,0,0,1-1.057,1.057H10.6A1.016,1.016,0,0,1,9.541,26.1V24.164c.352,0,.529.176.881.176a14.241,14.241,0,0,0,2.819.176L13.064,26.1ZM15,24.164a12.386,12.386,0,0,0,9.338-10.748h0v-.529h0V11.3h0a12.924,12.924,0,0,0-.881-3.524h0a.173.173,0,0,0-.176-.176V7.426h0c0-.176-.176-.352-.176-.529a10.427,10.427,0,0,1,5.11-1.233A13.311,13.311,0,0,1,41.431,18.879V25.4a16.548,16.548,0,0,1-2.114,8.281,32.527,32.527,0,0,1-10.043,1.057.832.832,0,0,0-.881.881v.176a.832.832,0,0,0,.881.881h.176a45.674,45.674,0,0,0,8.457-.7l-.176.176c-.529.529-.881,1.233-1.41,1.762a12.707,12.707,0,0,1-7.4,3.524h-.7a10.691,10.691,0,0,1-4.581-1.41,21.257,21.257,0,0,1-4.229-3.7c-.176,0-.176-.176-.352-.352h0A17.343,17.343,0,0,1,15.531,25.4L15,24.164Zm11.8,19.029-2.467,5.638-1.233-1.762-3.876-5.462h-.176L18,40.2l.352-1.762.352.352a13.262,13.262,0,0,0,8.1,4.4ZM1.964,51.474a3.139,3.139,0,0,1,1.762-2.819,41.5,41.5,0,0,1,14.1-5.286l5.638,7.752-.7,3.524H1.964V51.474Zm52.5,3H33.679l-.7-3.524,5.638-7.752a45.536,45.536,0,0,1,14.1,5.286,3.41,3.41,0,0,1,1.762,3v3ZM13.241,14.122h3.7V16.06A.987.987,0,0,0,18,16.941a.832.832,0,0,0,.881-.881V14.122h.881a.832.832,0,0,0,.881-.881v-.176a.832.832,0,0,0-.881-.881H18.7V7.6a1.171,1.171,0,0,0-.7-.881c-.352-.176-.7,0-1.057.352L12.36,12.536a1.123,1.123,0,0,0,0,1.057A.969.969,0,0,0,13.241,14.122Zm3.7-3.876V12.36H15.179ZM11.3,15.179H7.426l3.348-2.819a3.6,3.6,0,0,0,.7-3.7,3.24,3.24,0,0,0-3-2.114,3.722,3.722,0,0,0-3.7,3.7.832.832,0,0,0,.881.881.832.832,0,0,0,.881-.881A1.955,1.955,0,0,1,8.483,8.307a1.325,1.325,0,0,1,1.233.881c.176.7.176,1.41-.352,1.762l-4.229,3.7a1.37,1.37,0,0,0-.352,1.41,1.325,1.325,0,0,0,1.233.881h5.11c.529,0,.881-.176.881-.7V16.06c.352-.529-.176-.881-.7-.881Z" transform="translate(0.035 0.035)" fill="#f47332"/>
</svg>
