<svg xmlns="http://www.w3.org/2000/svg" width="52.935" height="42.242" viewBox="0 0 52.935 42.242">
  <path id="retail-payment" d="M28.118,29.306H42.242a.964.964,0,0,0,.924-.792v-7.92a1.132,1.132,0,0,0-.792-.924H28.118a.964.964,0,0,0-.924.792v7.92a.9.9,0,0,0,.924.924Zm.924-7.788H41.318V27.59H29.042ZM4.356,18.085h7a.861.861,0,0,0,.132-1.716H4.356a.883.883,0,0,0-.924.792,1.112,1.112,0,0,0,.924.924Zm10.561,0h7a.861.861,0,1,0,.132-1.716h-7a.883.883,0,0,0-.924.792c0,.528.264.924.792.924ZM4.356,21.517H15.841a.924.924,0,1,0,0-1.848H4.356a.9.9,0,0,0-.924.924,1.112,1.112,0,0,0,.924.924ZM22.045,19.8h-2.64a.964.964,0,0,0-.924.792v.132a1.132,1.132,0,0,0,.792.924h2.772a.964.964,0,0,0,.924-.792v-.132c-.132-.528-.4-.924-.924-.924ZM52.011,9.109a3.346,3.346,0,0,0-2.376-1.32l-2.112-.132V3.432A3.523,3.523,0,0,0,43.958,0H3.564A3.523,3.523,0,0,0,0,3.432v27.59a3.406,3.406,0,0,0,2.508,3.3,3.356,3.356,0,0,0,3.168,3.432l40.658,4.488h.4a3.556,3.556,0,0,0,3.564-2.9l2.64-27.722a4.168,4.168,0,0,0-.924-2.508ZM1.716,6.072H45.674v5.148H1.716V6.072ZM3.564,1.716H44.09a1.747,1.747,0,0,1,1.716,1.716h0v.792H1.716V3.432A1.779,1.779,0,0,1,3.564,1.716ZM1.716,31.022V12.937H45.674V31.022a1.747,1.747,0,0,1-1.716,1.716H3.564a1.779,1.779,0,0,1-1.848-1.716ZM50.955,11.353l-2.64,27.722a1.892,1.892,0,0,1-1.98,1.584h0L5.94,36.038a1.967,1.967,0,0,1-1.584-1.584H44.09a3.523,3.523,0,0,0,3.564-3.432V9.241l1.98.132a1.575,1.575,0,0,1,1.188.66,2.05,2.05,0,0,1,.132,1.32Z" fill="#f47332"/>
</svg>
