<svg width="32" height="32" viewBox="0 0 32 32" fill="none" xmlns="http://www.w3.org/2000/svg">
<mask id="mask0_111_222" style="mask-type:alpha" maskUnits="userSpaceOnUse" x="0" y="0" width="32" height="32">
<rect width="32" height="32" fill="#D9D9D9"/>
</mask>
<g mask="url(#mask0_111_222)">
<path d="M25.9793 26.8717L17.6307 18.523C16.964 19.0906 16.1973 19.5299 15.3307 19.841C14.464 20.1521 13.5931 20.3077 12.718 20.3077C10.5824 20.3077 8.775 19.5684 7.29566 18.09C5.81655 16.6116 5.077 14.8052 5.077 12.671C5.077 10.5366 5.81622 8.72867 7.29466 7.24733C8.77311 5.76622 10.5794 5.02567 12.7137 5.02567C14.8481 5.02567 16.656 5.76522 18.1373 7.24434C19.6184 8.72367 20.359 10.5311 20.359 12.6667C20.359 13.5931 20.1949 14.4897 19.8667 15.3563C19.5384 16.223 19.1077 16.964 18.5743 17.5793L26.923 25.9283L25.9793 26.8717ZM12.718 18.9743C14.4871 18.9743 15.9807 18.3653 17.1987 17.1473C18.4167 15.9296 19.0257 14.436 19.0257 12.6667C19.0257 10.8973 18.4167 9.40378 17.1987 8.186C15.9807 6.968 14.4871 6.359 12.718 6.359C10.9487 6.359 9.45511 6.968 8.23733 8.186C7.01933 9.40378 6.41033 10.8973 6.41033 12.6667C6.41033 14.436 7.01933 15.9296 8.23733 17.1473C9.45511 18.3653 10.9487 18.9743 12.718 18.9743Z" fill="#1C1B1F"/>
</g>
</svg>
