<svg width="32" height="32" viewBox="0 0 32 32" fill="none" xmlns="http://www.w3.org/2000/svg">
<mask id="mask0_111_216" style="mask-type:alpha" maskUnits="userSpaceOnUse" x="0" y="0" width="32" height="32">
<rect width="32" height="32" fill="#D9D9D9"/>
</mask>
<g mask="url(#mask0_111_216)">
<path d="M9.74363 28.154C9.18118 28.154 8.70718 27.9612 8.32163 27.5757C7.93629 27.1901 7.74363 26.7162 7.74363 26.154C7.74363 25.5916 7.93629 25.1176 8.32163 24.732C8.70718 24.3467 9.18118 24.154 9.74363 24.154C10.3061 24.154 10.78 24.3467 11.1653 24.732C11.5508 25.1176 11.7436 25.5916 11.7436 26.154C11.7436 26.7162 11.5508 27.1901 11.1653 27.5757C10.78 27.9612 10.3061 28.154 9.74363 28.154ZM22.2563 28.154C21.6938 28.154 21.22 27.9612 20.8346 27.5757C20.4491 27.1901 20.2563 26.7162 20.2563 26.154C20.2563 25.5916 20.4491 25.1176 20.8346 24.732C21.22 24.3467 21.6938 24.154 22.2563 24.154C22.8187 24.154 23.2927 24.3467 23.6783 24.732C24.0636 25.1176 24.2563 25.5916 24.2563 26.154C24.2563 26.7162 24.0636 27.1901 23.6783 27.5757C23.2927 27.9612 22.8187 28.154 22.2563 28.154ZM7.84096 7.33333L11.4 14.8207H20.246C20.4 14.8207 20.5367 14.7821 20.6563 14.705C20.7761 14.6281 20.8786 14.5213 20.964 14.3847L24.4513 8.05133C24.5537 7.86333 24.5623 7.69666 24.477 7.55133C24.3914 7.406 24.2461 7.33333 24.041 7.33333H7.84096ZM7.18963 6H24.5486C25.1282 6 25.5641 6.23633 25.8563 6.709C26.1487 7.18167 26.1642 7.66844 25.9026 8.16933L22.0923 15.1127C21.8992 15.4376 21.6483 15.6923 21.3396 15.877C21.0312 16.0617 20.6923 16.154 20.323 16.154H10.8L9.17929 19.1283C9.04263 19.3334 9.0384 19.5557 9.16663 19.795C9.29485 20.0343 9.48718 20.154 9.74363 20.154H24.2563V21.4873H9.74363C8.96585 21.4873 8.38552 21.1596 8.00263 20.504C7.61974 19.8484 7.61029 19.1899 7.97429 18.5283L9.97929 14.954L5.07696 4.66667H2.66663V3.33333H5.92296L7.18963 6Z" fill="black"/>
</g>
</svg>
