<svg width="19" height="19" viewBox="0 0 19 19" fill="none" xmlns="http://www.w3.org/2000/svg">
<path d="M8.17805 1.59893C8.4774 0.677618 9.78081 0.677616 10.0802 1.59893L11.5435 6.1027C11.6774 6.51472 12.0614 6.79368 12.4946 6.79368H17.2301C18.1989 6.79368 18.6016 8.0333 17.8179 8.6027L13.9868 11.3862C13.6363 11.6408 13.4896 12.0922 13.6235 12.5042L15.0869 17.008C15.3862 17.9293 14.3317 18.6954 13.548 18.126L9.71689 15.3425C9.36641 15.0879 8.89181 15.0879 8.54132 15.3425L4.71019 18.126C3.92647 18.6954 2.87199 17.9293 3.17134 17.008L4.63471 12.5042C4.76858 12.0922 4.62192 11.6408 4.27144 11.3862L0.440303 8.6027C-0.343411 8.0333 0.0593629 6.79368 1.02809 6.79368H5.76363C6.19686 6.79368 6.58081 6.51472 6.71469 6.1027L8.17805 1.59893Z" fill="#D9D9D9"/>
</svg>
