<svg width="19" height="19" viewBox="0 0 19 19" fill="none" xmlns="http://www.w3.org/2000/svg">
<path d="M8.80293 1.59893C9.10228 0.677618 10.4057 0.677616 10.705 1.59893L12.1684 6.1027C12.3023 6.51472 12.6862 6.79368 13.1195 6.79368H17.855C18.8237 6.79368 19.2265 8.0333 18.4428 8.6027L14.6117 11.3862C14.2612 11.6408 14.1145 12.0922 14.2484 12.5042L15.7117 17.008C16.0111 17.9293 14.9566 18.6954 14.1729 18.126L10.3418 15.3425C9.99128 15.0879 9.51669 15.0879 9.1662 15.3425L5.33507 18.126C4.55135 18.6954 3.49687 17.9293 3.79622 17.008L5.25959 12.5042C5.39346 12.0922 5.2468 11.6408 4.89632 11.3862L1.06518 8.6027C0.281467 8.0333 0.684241 6.79368 1.65296 6.79368H6.38851C6.82174 6.79368 7.20569 6.51472 7.33957 6.1027L8.80293 1.59893Z" fill="#0DA79E"/>
</svg>
